<?xml version="1.0" encoding="UTF-8" standalone="no"?>
<!-- Created with Inkscape (http://www.inkscape.org/) -->

<svg
   xmlns:dc="http://purl.org/dc/elements/1.1/"
   xmlns:cc="http://creativecommons.org/ns#"
   xmlns:rdf="http://www.w3.org/1999/02/22-rdf-syntax-ns#"
   xmlns:svg="http://www.w3.org/2000/svg"
   xmlns="http://www.w3.org/2000/svg"
   xmlns:sodipodi="http://sodipodi.sourceforge.net/DTD/sodipodi-0.dtd"
   xmlns:inkscape="http://www.inkscape.org/namespaces/inkscape"
   width="288"
   height="32"
   viewBox="0 0 288 31.999999"
   id="svg2"
   version="1.1"
   inkscape:version="0.92.3 (unknown)"
   sodipodi:docname="analytics.svg"
   inkscape:export-filename="/tmp/analytics.png"
   inkscape:export-xdpi="270"
   inkscape:export-ydpi="270">
  <defs
     id="defs4" />
  <sodipodi:namedview
     id="base"
     pagecolor="#ffffff"
     bordercolor="#666666"
     borderopacity="1.0"
     inkscape:pageopacity="0.0"
     inkscape:pageshadow="2"
     inkscape:zoom="2.8284271"
     inkscape:cx="120.30787"
     inkscape:cy="-3.4009043"
     inkscape:document-units="px"
     inkscape:current-layer="layer1"
     showgrid="false"
     fit-margin-top="0"
     fit-margin-left="0"
     fit-margin-right="0"
     fit-margin-bottom="0"
     inkscape:window-width="1871"
     inkscape:window-height="1056"
     inkscape:window-x="49"
     inkscape:window-y="24"
     inkscape:window-maximized="1"
     showguides="false"
     units="px" />
  <metadata
     id="metadata7">
    <rdf:RDF>
      <cc:Work
         rdf:about="">
        <dc:format>image/svg+xml</dc:format>
        <dc:type
           rdf:resource="http://purl.org/dc/dcmitype/StillImage" />
        <dc:title></dc:title>
      </cc:Work>
    </rdf:RDF>
  </metadata>
  <g
     inkscape:groupmode="layer"
     id="layer2"
     inkscape:label="Fons"
     style="display:none"
     transform="translate(-1.4901508e-6,64.000033)"
     sodipodi:insensitive="true">
    <g
       transform="matrix(1.3333333,0,0,1.3333333,-6.8465397e-7,-32.000016)"
       style="display:inline"
       id="g5642">
      <rect
         y="-47.999989"
         x="0"
         height="144"
         width="288"
         id="rect4621"
         style="color:#000000;display:inline;overflow:visible;visibility:visible;opacity:1;fill:#000000;fill-opacity:1;fill-rule:nonzero;stroke:none;stroke-width:2;stroke-linecap:butt;stroke-linejoin:miter;stroke-miterlimit:4;stroke-dasharray:none;stroke-dashoffset:0;stroke-opacity:1;marker:none;enable-background:accumulate" />
    </g>
  </g>
  <g
     inkscape:label="Icones"
     inkscape:groupmode="layer"
     id="layer1"
     transform="translate(-34.285713,-59.219327)">
    <text
       xml:space="preserve"
       style="font-style:normal;font-weight:normal;line-height:0%;font-family:sans-serif;letter-spacing:0px;word-spacing:0px;fill:#000000;fill-opacity:1;stroke:none;stroke-width:1px;stroke-linecap:butt;stroke-linejoin:miter;stroke-opacity:1"
       x="-73.901627"
       y="45.090916"
       id="text4875"><tspan
         sodipodi:role="line"
         id="tspan4877"
         x="-73.901627"
         y="45.090916"
         style="font-size:40px;line-height:1.25;font-family:sans-serif"> </tspan></text>
    <rect
       style="color:#000000;display:inline;overflow:visible;visibility:visible;opacity:1;fill:#ffffff;fill-opacity:1;fill-rule:nonzero;stroke:none;stroke-width:2;stroke-linecap:butt;stroke-linejoin:miter;stroke-miterlimit:4;stroke-dasharray:none;stroke-dashoffset:0;stroke-opacity:1;marker:none;enable-background:accumulate"
       id="rect4136-2-3-8-6-1-0"
       width="32"
       height="32"
       x="34.285713"
       y="59.219326" />
    <rect
       style="color:#000000;display:inline;overflow:visible;visibility:visible;opacity:1;fill:#ffffff;fill-opacity:1;fill-rule:nonzero;stroke:none;stroke-width:2;stroke-linecap:butt;stroke-linejoin:miter;stroke-miterlimit:4;stroke-dasharray:none;stroke-dashoffset:0;stroke-opacity:1;marker:none;enable-background:accumulate"
       id="rect4136-2-3-99-3-7"
       width="32"
       height="32"
       x="66.285713"
       y="59.219326" />
    <path
       id="path4324-1-5-6"
       d="m 84.285713,68.552652 h 3.333333 v -3.999999 h -3.333333 c -2.573333,0 -4.666667,2.093333 -4.666667,4.666666 v 2 H 76.95238 v 4.000013 h 2.666666 v 10.666667 h 4 V 75.219332 h 3.333334 l 0.666666,-4.000013 h -4 v -2 c 0,-0.361333 0.305334,-0.666667 0.666667,-0.666667 z"
       inkscape:connector-curvature="0"
       style="fill:#45619d;fill-opacity:1" />
    <path
       id="path4436-5-7-9"
       d="m 60.955045,70.600668 c -0.784,0.350666 -1.629334,0.584 -2.512,0.688 0.904,-0.541334 1.596,-1.4 1.925333,-2.421334 -0.845333,0.5 -1.784,0.866667 -2.778667,1.062667 -0.8,-0.850667 -1.937333,-1.378666 -3.196,-1.378666 -2.417333,0 -4.374666,1.958666 -4.374666,4.374666 0,0.341333 0.03733,0.674667 0.112,0.996 -3.637333,-0.184 -6.862667,-1.925333 -9.021333,-4.574667 -0.374667,0.645334 -0.592,1.4 -0.592,2.2 0,1.517334 0.770666,2.85868 1.945333,3.641334 -0.717333,-0.02133 -1.392,-0.22132 -1.984,-0.54532 0,0.01733 0,0.03733 0,0.05467 0,2.121334 1.508,3.892 3.512,4.291987 -0.366667,0.1 -0.754667,0.15468 -1.154667,0.15468 -0.282666,0 -0.554666,-0.02933 -0.825333,-0.07867 0.558667,1.737334 2.174667,3.003987 4.088,3.041333 -1.5,1.174667 -3.384,1.874654 -5.437333,1.874654 -0.354667,0 -0.7,-0.02133 -1.045334,-0.06267 1.941334,1.245333 4.241334,1.966667 6.712,1.966667 8.049333,0 12.454667,-6.670653 12.454667,-12.454667 0,-0.192 -0.004,-0.378666 -0.012,-0.566666 0.854666,-0.612 1.596,-1.384 2.182666,-2.262667 z"
       inkscape:connector-curvature="0"
       style="fill:#2ca9e1;fill-opacity:1" />
    <rect
       style="color:#000000;display:inline;overflow:visible;visibility:visible;opacity:1;fill:#ffffff;fill-opacity:1;fill-rule:nonzero;stroke:none;stroke-width:2;stroke-linecap:butt;stroke-linejoin:miter;stroke-miterlimit:4;stroke-dasharray:none;stroke-dashoffset:0;stroke-opacity:1;marker:none;enable-background:accumulate"
       id="rect4136-2-6-8-6-6-2"
       width="32"
       height="32"
       x="98.285713"
       y="59.219326" />
    <path
       style="fill:#1c86bd;fill-opacity:1"
       d="m 106.95238,68.552666 c -1.104,0 -2,0.896 -2,2 0,1.104 0.896,2 2,2 1.104,0 2,-0.896 2,-2 0,-1.104 -0.896,-2 -2,-2 z m -2,5.333333 v 12 h 4 v -12 z m 6.66666,0 v 12 h 3.84375 v -5.791666 c 0,-1.528 0.30723,-3.007814 2.3099,-3.007814 1.972,0 2,1.74944 2,3.106774 v 5.692706 h 3.84635 v -6.421866 c 0,-3.153334 -0.71992,-5.578134 -4.61458,-5.578134 -1.87334,0 -3.1299,0.969294 -3.64323,1.890627 h -0.0521 v -1.890627 h -3.69011 z"
       id="path4373-2-8-5-3"
       inkscape:connector-curvature="0" />
    <rect
       style="color:#000000;display:inline;overflow:visible;visibility:visible;opacity:1;fill:#ffffff;fill-opacity:1;fill-rule:nonzero;stroke:none;stroke-width:2;stroke-linecap:butt;stroke-linejoin:miter;stroke-miterlimit:4;stroke-dasharray:none;stroke-dashoffset:0;stroke-opacity:1;marker:none;enable-background:accumulate"
       id="rect4136-2-0-4-2-1-1"
       width="32"
       height="32"
       x="130.28572"
       y="59.219326" />
    <path
       style="fill:#e44040;fill-opacity:1"
       d="m 141.99926,70.875589 c -4.14965,0.004 -7.5026,3.35816 -7.5026,7.5078 0,4.14965 3.35295,7.50261 7.5026,7.50261 4.32795,0 7.20312,-3.04405 7.20312,-7.33073 0,-0.49219 -0.0549,-0.87196 -0.11973,-1.24479 h -7.08333 v 2.57291 h 4.25521 c -0.17093,1.1052 -1.28445,3.23959 -4.25521,3.23959 -2.55964,0 -4.65104,-2.12395 -4.65104,-4.73959 0,-2.61563 2.0914,-4.73957 4.65104,-4.73957 1.46033,0 2.42996,0.62278 2.98698,1.15624 l 2.03646,-1.96094 c -1.30855,-1.22013 -3.00167,-1.96353 -5.02344,-1.96353 z m 11.65364,4.0078 v 2.21095 h -2.20833 v 2.21093 h 2.20833 v 2.20833 h 2.21095 v -2.20833 h 2.21093 v -2.21093 h -2.21093 v -2.21095 z"
       id="path4346-9-1-8-0"
       inkscape:connector-curvature="0" />
    <rect
       style="color:#000000;display:inline;overflow:visible;visibility:visible;opacity:1;fill:#ffffff;fill-opacity:1;fill-rule:nonzero;stroke:none;stroke-width:2;stroke-linecap:butt;stroke-linejoin:miter;stroke-miterlimit:4;stroke-dasharray:none;stroke-dashoffset:0;stroke-opacity:1;marker:none;enable-background:accumulate"
       id="rect4136-3-5-4-3-7-0"
       width="32"
       height="32"
       x="162.28569"
       y="59.219326" />
    <rect
       style="color:#000000;display:inline;overflow:visible;visibility:visible;opacity:1;fill:#ffffff;fill-opacity:1;fill-rule:nonzero;stroke:none;stroke-width:2;stroke-linecap:butt;stroke-linejoin:miter;stroke-miterlimit:4;stroke-dasharray:none;stroke-dashoffset:0;stroke-opacity:1;marker:none;enable-background:accumulate"
       id="rect4136-2-3-4-84-9-3-7-6"
       width="32"
       height="32"
       x="194.28569"
       y="-91.219299"
       transform="scale(1,-1)" />
    <path
       id="path4362-0-0-2-6-8"
       d="m 185.79167,67.409799 h -15.0119 c -0.95268,0 -1.73215,0.77947 -1.73215,1.73215 v 15.01191 c 0,0.95268 0.77947,1.73214 1.73215,1.73214 h 15.0119 c 0.95268,0 1.73214,-0.77946 1.73214,-1.73214 v -15.01191 c 0,-0.95268 -0.77946,-1.73215 -1.73214,-1.73215 z m -4.04166,2.88691 c 0,-0.31756 0.25981,-0.57739 0.57737,-0.57739 h 2.30953 c 0.31755,0 0.57738,0.25983 0.57738,0.57739 v 2.30952 c 0,0.31756 -0.25983,0.57739 -0.57738,0.57739 h -2.30953 c -0.31756,0 -0.57737,-0.25983 -0.57737,-0.57739 z m -3.4643,2.88691 c 1.9123,0 3.4643,1.55201 3.4643,3.46428 0,1.91229 -1.552,3.46429 -3.4643,3.46429 -1.91228,0 -3.46428,-1.552 -3.46428,-3.46429 0,-1.91227 1.552,-3.46428 3.46428,-3.46428 z m 6.92858,9.81548 v 0 c 0,0.31756 -0.25983,0.57737 -0.57738,0.57737 h -12.70238 c -0.31756,0 -0.57739,-0.25981 -0.57739,-0.57737 v 0 -7.50595 h 1.27024 c -0.0763,0.37183 -0.11547,0.75752 -0.11547,1.15475 0,3.18945 2.5832,5.77382 5.77382,5.77382 3.1906,0 5.77381,-2.58436 5.77381,-5.77382 0,-0.39723 -0.0392,-0.78292 -0.11547,-1.15475 h 1.27024 v 7.50595 z"
       inkscape:connector-curvature="0"
       style="fill:#e350bb;fill-opacity:1" />
    <path
       id="path4403-2-2-3-1-3"
       d="m 202.3183,72.997939 q 0,-1.30463 0.45313,-2.45776 0.45314,-1.15312 1.24984,-2.0107 0.79671,-0.85757 1.83554,-1.4852 1.03882,-0.62761 2.23456,-0.9421 1.19573,-0.3145 2.43948,-0.31382 1.9079,0 3.55068,0.80347 1.64278,0.80347 2.66876,2.33668 1.02598,1.53323 1.02665,3.46615 0,1.15922 -0.22927,2.2704 -0.22928,1.11121 -0.72434,2.13785 -0.49506,1.02667 -1.2079,1.80579 -0.71285,0.77912 -1.751,1.24376 -1.03814,0.46462 -2.28257,0.46529 -0.82105,0 -1.63061,-0.38617 -0.80956,-0.38618 -1.15922,-1.0625 -0.12106,0.47072 -0.33816,1.35874 -0.21709,0.888 -0.28405,1.14701 -0.0669,0.25904 -0.24753,0.85757 -0.18058,0.59855 -0.31382,0.85758 -0.1332,0.25904 -0.38617,0.75477 -0.25295,0.49576 -0.55527,0.93604 -0.3023,0.44028 -0.74868,1.04491 l -0.16908,0.0603 -0.10893,-0.12107 q -0.18125,-1.89639 -0.18125,-2.27039 0,-1.1112 0.2597,-2.49426 0.25971,-1.38308 0.80347,-3.47223 0.54376,-2.08917 0.62829,-2.45167 -0.38617,-0.7852 -0.38617,-2.04112 0,-1.00232 0.62831,-1.88425 0.62829,-0.88192 1.59408,-0.88192 0.73652,0 1.14704,0.48899 0.41053,0.48897 0.41053,1.23766 0,0.79739 -0.5316,2.30692 -0.53159,1.50958 -0.53159,2.25824 0,0.76086 0.54376,1.26203 0.54378,0.50115 1.31612,0.50115 0.66415,0 1.23159,-0.30164 0.56743,-0.30164 0.9482,-0.82106 0.38076,-0.51942 0.67632,-1.14705 0.29555,-0.6276 0.45921,-1.33436 0.16368,-0.70675 0.24146,-1.34047 0.0777,-0.63373 0.0784,-1.20184 0,-2.08914 -1.3222,-3.25513 -1.32222,-1.16597 -3.44788,-1.16528 -2.41515,0 -4.03358,1.56431 -1.61844,1.56433 -1.61844,3.9673 0,0.53159 0.15083,1.02667 0.15081,0.49507 0.32599,0.7852 0.17516,0.29015 0.32598,0.54985 0.15082,0.25971 0.15082,0.36859 0,0.33816 -0.18126,0.88193 -0.18125,0.54375 -0.44704,0.54375 -0.0244,0 -0.20561,-0.0365 -0.61612,-0.18124 -1.09293,-0.67631 -0.4768,-0.49508 -0.73651,-1.14164 -0.25971,-0.64656 -0.39227,-1.30461 -0.13253,-0.65805 -0.13253,-1.28636 z"
       inkscape:connector-curvature="0"
       style="fill:#d01d15;fill-opacity:1" />
    <rect
       style="color:#000000;display:inline;overflow:visible;visibility:visible;opacity:1;fill:#ffffff;fill-opacity:1;fill-rule:nonzero;stroke:none;stroke-width:2;stroke-linecap:butt;stroke-linejoin:miter;stroke-miterlimit:4;stroke-dasharray:none;stroke-dashoffset:0;stroke-opacity:1;marker:none;enable-background:accumulate"
       id="rect4136-2-3-8-6-1-0-6"
       width="32"
       height="32"
       x="226.28569"
       y="59.219296" />
    <rect
       style="color:#000000;display:inline;overflow:visible;visibility:visible;opacity:1;fill:#ffffff;fill-opacity:1;fill-rule:nonzero;stroke:none;stroke-width:2;stroke-linecap:butt;stroke-linejoin:miter;stroke-miterlimit:4;stroke-dasharray:none;stroke-dashoffset:0;stroke-opacity:1;marker:none;enable-background:accumulate"
       id="rect4136-2-3-99-3-7-7"
       width="32"
       height="32"
       x="258.28568"
       y="59.219296" />
    <path
       id="path4303"
       d="m 242.28571,67.164219 c 5.51738,0 9.98959,3.63371 9.98959,8.11654 0,4.48283 -4.47221,8.11654 -9.98959,8.11654 -0.53007,0 -1.05016,-0.0337 -1.55775,-0.0986 -2.14589,2.14589 -4.70697,2.53049 -7.18314,2.5873 v -0.52508 c 1.33735,-0.65494 2.49739,-1.84869 2.49739,-3.21227 0,-0.19043 -0.015,-0.37711 -0.0425,-0.56005 -2.25952,-1.48782 -3.70364,-3.76108 -3.70364,-6.3078 0,-4.48283 4.47221,-8.11654 9.98959,-8.11654 z"
       inkscape:connector-curvature="0"
       style="fill:#88aa00" />
    <g
       id="g4684"
       transform="translate(-95.999961,2.270891)">
      <path
         id="rect4338"
         d="m 368.72885,72.162126 c -0.6878,0 -1.24138,0.553756 -1.24138,1.241557 v 4.500366 h -1.17949 -0.90995 -2.17259 c -0.68781,0 -1.24156,0.553756 -1.24156,1.241557 v 3.227945 c 0,0.687801 0.55375,1.241557 1.24156,1.241557 h 2.04846 1.03408 2.71013 2.79329 1.24155 v -2.979669 -7.231756 -1.241557 h -1.24155 z"
         style="opacity:1;fill:#ffc51a;fill-opacity:1;stroke:none;stroke-opacity:1"
         inkscape:connector-curvature="0" />
      <path
         id="rect4338-2-7"
         d="m 374.26348,66.823483 c -0.6878,0 -1.24156,0.553755 -1.24156,1.241557 v 12.570399 1.738112 1.241557 h 1.24156 2.79346 0.28908 c 0.68781,0 1.24139,-0.553756 1.24139,-1.241557 V 68.06504 c 0,-0.687802 -0.55358,-1.241557 -1.24139,-1.241557 z"
         style="opacity:1;fill:#f58006;fill-opacity:1;stroke:none;stroke-opacity:1"
         inkscape:connector-curvature="0" />
    </g>
    <rect
       style="color:#000000;display:inline;overflow:visible;visibility:visible;opacity:1;fill:#ffffff;fill-opacity:1;fill-rule:nonzero;stroke:none;stroke-width:2;stroke-linecap:butt;stroke-linejoin:miter;stroke-miterlimit:4;stroke-dasharray:none;stroke-dashoffset:0;stroke-opacity:1;marker:none;enable-background:accumulate"
       id="rect4136-2-3-99-3-7-7-3"
       width="32"
       height="32"
       x="290.28568"
       y="59.219296" />
    <path
       inkscape:connector-curvature="0"
       style="opacity:1;vector-effect:none;fill:#29445d;fill-opacity:1;fill-rule:nonzero;stroke:none;stroke-width:0.48768181;stroke-linecap:butt;stroke-linejoin:round;stroke-miterlimit:4;stroke-dasharray:none;stroke-dashoffset:0;stroke-opacity:1"
       d="m 304.42639,64.923898 c 0,4.27787 -3.47473,5.8217 -3.47473,5.8217 v 2.74321 h 2.16409 v 8.564909 c 0,3.98861 4.72441,3.97258 8.50395,2.71273 v -3.26137 c -3.28169,1.92412 -4.99874,0.72641 -4.99874,-1.73737 v -6.278899 h 4.54154 v -3.20041 h -4.54154 v -5.3645 z"
       id="path1140-6" />
  </g>
</svg>
