<?xml version="1.0" encoding="UTF-8" standalone="no"?>
<!-- Created with Inkscape (http://www.inkscape.org/) -->

<svg
   xmlns:dc="http://purl.org/dc/elements/1.1/"
   xmlns:cc="http://creativecommons.org/ns#"
   xmlns:rdf="http://www.w3.org/1999/02/22-rdf-syntax-ns#"
   xmlns:svg="http://www.w3.org/2000/svg"
   xmlns="http://www.w3.org/2000/svg"
   xmlns:sodipodi="http://sodipodi.sourceforge.net/DTD/sodipodi-0.dtd"
   xmlns:inkscape="http://www.inkscape.org/namespaces/inkscape"
   width="48"
   height="48"
   viewBox="0 0 48 47.999997"
   id="svg2"
   version="1.1"
   inkscape:version="0.92.0 unknown"
   sodipodi:docname="arrows.svg"
   inkscape:export-filename="/home/david/Programs/dev/vm/VVV-1.2.0/www/wordpress-default/wp-content/plugins/nelio-content/admin/images/arrows.png"
   inkscape:export-xdpi="90.000015"
   inkscape:export-ydpi="90.000015">
  <defs
     id="defs4" />
  <sodipodi:namedview
     id="base"
     pagecolor="#ffffff"
     bordercolor="#666666"
     borderopacity="1.0"
     inkscape:pageopacity="0.0"
     inkscape:pageshadow="2"
     inkscape:zoom="11.32"
     inkscape:cx="1.7819864"
     inkscape:cy="27.086058"
     inkscape:document-units="px"
     inkscape:current-layer="layer1"
     showgrid="false"
     fit-margin-top="0"
     fit-margin-left="0"
     fit-margin-right="0"
     fit-margin-bottom="0"
     inkscape:window-width="1871"
     inkscape:window-height="1056"
     inkscape:window-x="49"
     inkscape:window-y="24"
     inkscape:window-maximized="1"
     showguides="false"
     units="px" />
  <metadata
     id="metadata7">
    <rdf:RDF>
      <cc:Work
         rdf:about="">
        <dc:format>image/svg+xml</dc:format>
        <dc:type
           rdf:resource="http://purl.org/dc/dcmitype/StillImage" />
        <dc:title />
      </cc:Work>
    </rdf:RDF>
  </metadata>
  <g
     inkscape:groupmode="layer"
     id="layer2"
     inkscape:label="Fons"
     style="display:none"
     transform="translate(380.13593,32.87723)"
     sodipodi:insensitive="true">
    <g
       transform="matrix(1.3333333,0,0,1.3333333,-6.8465397e-7,-32.000016)"
       style="display:inline"
       id="g5642">
      <rect
         y="-47.999989"
         x="0"
         height="144"
         width="288"
         id="rect4621"
         style="color:#000000;display:inline;overflow:visible;visibility:visible;opacity:1;fill:#000000;fill-opacity:1;fill-rule:nonzero;stroke:none;stroke-width:2;stroke-linecap:butt;stroke-linejoin:miter;stroke-miterlimit:4;stroke-dasharray:none;stroke-dashoffset:0;stroke-opacity:1;marker:none;enable-background:accumulate" />
    </g>
  </g>
  <g
     inkscape:label="Icones"
     inkscape:groupmode="layer"
     id="layer1"
     transform="translate(345.85022,-90.34212)">
    <path
       style="color:#000000;clip-rule:nonzero;display:inline;overflow:visible;visibility:visible;opacity:1;isolation:auto;mix-blend-mode:normal;color-interpolation:sRGB;color-interpolation-filters:linearRGB;solid-color:#000000;solid-opacity:1;fill:#efefef;fill-opacity:1;fill-rule:nonzero;stroke:none;stroke-width:2;stroke-linecap:butt;stroke-linejoin:round;stroke-miterlimit:4;stroke-dasharray:none;stroke-dashoffset:0;stroke-opacity:1;marker:none;color-rendering:auto;image-rendering:auto;shape-rendering:auto;text-rendering:auto;enable-background:accumulate"
       d="m -345.85022,90.342127 c 0.70689,0.465504 1.37562,0.910621 2.00823,1.336998 10.08393,6.796472 10.99177,8.831595 10.99177,12.779315 l 0,-14.116313 -10.01855,0 z"
       id="rect4359"
       inkscape:connector-curvature="0"
       sodipodi:nodetypes="cscccc" />
    <path
       inkscape:connector-curvature="0"
       style="color:#000000;clip-rule:nonzero;display:inline;overflow:visible;visibility:visible;opacity:1;isolation:auto;mix-blend-mode:normal;color-interpolation:sRGB;color-interpolation-filters:linearRGB;solid-color:#000000;solid-opacity:1;fill:#f0f0f0;fill-opacity:1;fill-rule:nonzero;stroke:none;stroke-width:2;stroke-linecap:butt;stroke-linejoin:round;stroke-miterlimit:4;stroke-dasharray:none;stroke-dashoffset:0;stroke-opacity:1;marker:none;color-rendering:auto;image-rendering:auto;shape-rendering:auto;text-rendering:auto;enable-background:accumulate"
       d="m -329.85022,90.342127 c 3.83293,0 10,3.419171 10,13.321263 l 0,-13.321263 z"
       id="rect4359-7"
       sodipodi:nodetypes="cccc" />
    <path
       inkscape:connector-curvature="0"
       style="color:#000000;clip-rule:nonzero;display:inline;overflow:visible;visibility:visible;opacity:1;isolation:auto;mix-blend-mode:normal;color-interpolation:sRGB;color-interpolation-filters:linearRGB;solid-color:#000000;solid-opacity:1;fill:#f5f5f5;fill-opacity:1;fill-rule:nonzero;stroke:none;stroke-width:2;stroke-linecap:butt;stroke-linejoin:round;stroke-miterlimit:4;stroke-dasharray:none;stroke-dashoffset:0;stroke-opacity:1;marker:none;color-rendering:auto;image-rendering:auto;shape-rendering:auto;text-rendering:auto;enable-background:accumulate"
       d="m -303.85022,90.342126 c -3.83293,0 -10,3.419171 -10,13.321264 l 0,-13.321264 z"
       id="rect4359-7-3"
       sodipodi:nodetypes="cccc" />
    <rect
       style="color:#000000;clip-rule:nonzero;display:inline;overflow:visible;visibility:visible;opacity:1;isolation:auto;mix-blend-mode:normal;color-interpolation:sRGB;color-interpolation-filters:linearRGB;solid-color:#000000;solid-opacity:1;fill:#fff6d5;fill-opacity:1;fill-rule:nonzero;stroke:none;stroke-width:2;stroke-linecap:butt;stroke-linejoin:round;stroke-miterlimit:4;stroke-dasharray:none;stroke-dashoffset:0;stroke-opacity:1;marker:none;color-rendering:auto;image-rendering:auto;shape-rendering:auto;text-rendering:auto;enable-background:accumulate"
       id="rect4407"
       width="16"
       height="16"
       x="-313.85022"
       y="122.34212" />
    <rect
       style="color:#000000;clip-rule:nonzero;display:inline;overflow:visible;visibility:visible;opacity:1;isolation:auto;mix-blend-mode:normal;color-interpolation:sRGB;color-interpolation-filters:linearRGB;solid-color:#000000;solid-opacity:1;fill:#efefef;fill-opacity:1;fill-rule:nonzero;stroke:none;stroke-width:2;stroke-linecap:butt;stroke-linejoin:round;stroke-miterlimit:4;stroke-dasharray:none;stroke-dashoffset:0;stroke-opacity:1;marker:none;color-rendering:auto;image-rendering:auto;shape-rendering:auto;text-rendering:auto;enable-background:accumulate"
       id="rect4162"
       width="3"
       height="16"
       x="-332.85022"
       y="90.342117" />
    <g
       id="g4557">
      <path
         inkscape:connector-curvature="0"
         id="rect4359-3-68-8-8"
         d="m -331.85024,106.34212 0,3 -1,0 -3.78125,0 c 0.11531,0.0911 0.19529,0.16656 0.30664,0.25586 l -1.8418,2.16211 c 1.65802,1.312 2.80922,2.40337 3.59766,3.38867 0.0377,0.0471 0.0755,0.0943 0.11133,0.14062 0.23344,0.30182 0.44592,0.59728 0.61719,0.88477 l 2.35351,-1.79688 0.0176,0 c 1.19024,1.78607 1.61914,3.52668 1.61914,4.45704 l 0,-1.03125 0,-4.62305 0,-3.83789 0,-3 -2,0 z m -9.75391,2.88086 c 0.89736,0.62944 1.68653,1.20584 2.41016,1.75195 -0.72098,-0.54477 -1.51743,-1.12473 -2.41016,-1.75195 z m 7.90039,7.20312 c 0.0679,0.12498 0.13367,0.24937 0.19141,0.37305 -0.0577,-0.12342 -0.12362,-0.24834 -0.19141,-0.37305 z m 0.30469,0.63086 c 0.037,0.0892 0.0673,0.17857 0.0996,0.26758 -0.0323,-0.0886 -0.0627,-0.1788 -0.0996,-0.26758 z m 0.49024,2.10352 c 0.0374,0.41718 0.0586,0.84055 0.0586,1.29883 0,-0.45665 -0.0212,-0.88296 -0.0586,-1.29883 z"
         style="color:#000000;clip-rule:nonzero;display:inline;overflow:visible;visibility:visible;opacity:1;isolation:auto;mix-blend-mode:normal;color-interpolation:sRGB;color-interpolation-filters:linearRGB;solid-color:#000000;solid-opacity:1;fill:#ffffff;fill-opacity:1;fill-rule:nonzero;stroke:none;stroke-width:2;stroke-linecap:butt;stroke-linejoin:round;stroke-miterlimit:4;stroke-dasharray:none;stroke-dashoffset:0;stroke-opacity:1;marker:none;color-rendering:auto;image-rendering:auto;shape-rendering:auto;text-rendering:auto;enable-background:accumulate" />
      <path
         id="rect4359-3-68"
         transform="translate(-345.85022,90.342118)"
         d="M 0 16 C 3.3560269 18.210032 5.829159 19.950543 7.6835938 21.417969 L 9.5253906 19.255859 C 9.4140359 19.166569 9.3340603 19.091049 9.21875 19 L 13 19 L 14 19 L 14 16 L 13 16 L 0 16 z M 14.363281 24.035156 L 12.009766 25.832031 C 12.84927 27.24128 13 28.523774 13 30.117188 L 13 32 L 16 32 L 16 28.492188 C 16 27.561837 15.571104 25.821225 14.380859 24.035156 L 14.363281 24.035156 z M 11.244141 24.759766 C 11.294704 24.822262 11.344847 24.885555 11.392578 24.947266 C 11.344808 24.885777 11.294751 24.822051 11.244141 24.759766 z "
         style="color:#000000;clip-rule:nonzero;display:inline;overflow:visible;visibility:visible;opacity:1;isolation:auto;mix-blend-mode:normal;color-interpolation:sRGB;color-interpolation-filters:linearRGB;solid-color:#000000;solid-opacity:1;fill:#eaeaea;fill-opacity:1;fill-rule:nonzero;stroke:none;stroke-width:2;stroke-linecap:butt;stroke-linejoin:round;stroke-miterlimit:4;stroke-dasharray:none;stroke-dashoffset:0;stroke-opacity:1;marker:none;color-rendering:auto;image-rendering:auto;shape-rendering:auto;text-rendering:auto;enable-background:accumulate" />
    </g>
    <g
       id="g4584"
       transform="translate(-14.67934,4.622428)">
      <path
         inkscape:connector-curvature="0"
         id="rect4359-3-68-8-8-5"
         d="m -301.1709,101.71969 0,3 -1,0 -3.78125,0 c 0.11531,0.0911 0.19529,0.16656 0.30664,0.25586 l -1.8418,2.16211 c 1.65802,1.312 2.80922,2.40337 3.59766,3.38867 0.0377,0.0471 0.0755,0.0943 0.11133,0.14062 0.23344,0.30182 0.44592,0.59728 0.61719,0.88477 l 2.35351,-1.79688 0.0176,0 c 1.19024,1.78607 1.61914,3.52668 1.61914,4.45704 l 0,-1.03125 0,-4.62305 0,-3.83789 0,-3 -2,0 z m -9.75391,2.88086 c 0.89736,0.62944 1.68653,1.20584 2.41016,1.75195 -0.72098,-0.54477 -1.51743,-1.12473 -2.41016,-1.75195 z m 7.90039,7.20312 c 0.0679,0.12498 0.13367,0.24937 0.19141,0.37305 -0.0577,-0.12342 -0.12362,-0.24834 -0.19141,-0.37305 z m 0.30469,0.63086 c 0.037,0.0892 0.0673,0.17857 0.0996,0.26758 -0.0323,-0.0886 -0.0627,-0.1788 -0.0996,-0.26758 z m 0.49024,2.10352 c 0.0374,0.41718 0.0586,0.84055 0.0586,1.29883 0,-0.45665 -0.0212,-0.88296 -0.0586,-1.29883 z"
         style="color:#000000;clip-rule:nonzero;display:inline;overflow:visible;visibility:visible;opacity:1;isolation:auto;mix-blend-mode:normal;color-interpolation:sRGB;color-interpolation-filters:linearRGB;solid-color:#000000;solid-opacity:1;fill:#fafafa;fill-opacity:1;fill-rule:nonzero;stroke:none;stroke-width:2;stroke-linecap:butt;stroke-linejoin:round;stroke-miterlimit:4;stroke-dasharray:none;stroke-dashoffset:0;stroke-opacity:1;marker:none;color-rendering:auto;image-rendering:auto;shape-rendering:auto;text-rendering:auto;enable-background:accumulate" />
      <path
         inkscape:connector-curvature="0"
         id="rect4359-3-68-1"
         d="m -315.17088,101.71969 c 3.35603,2.21003 5.82916,3.95054 7.68359,5.41797 l 1.8418,-2.16211 c -0.11135,-0.0893 -0.19133,-0.16481 -0.30664,-0.25586 l 3.78125,0 1,0 0,-3 -1,0 -13,0 z m 14.36328,8.03516 -2.35351,1.79687 c 0.8395,1.40925 0.99023,2.69174 0.99023,4.28516 l 0,1.88281 3,0 0,-3.50781 c 0,-0.93035 -0.4289,-2.67097 -1.61914,-4.45703 l -0.0176,0 z m -3.11914,0.72461 c 0.0506,0.0625 0.10071,0.12578 0.14844,0.1875 -0.0478,-0.0615 -0.0978,-0.12522 -0.14844,-0.1875 z"
         style="color:#000000;clip-rule:nonzero;display:inline;overflow:visible;visibility:visible;opacity:1;isolation:auto;mix-blend-mode:normal;color-interpolation:sRGB;color-interpolation-filters:linearRGB;solid-color:#000000;solid-opacity:1;fill:#999999;fill-opacity:1;fill-rule:nonzero;stroke:none;stroke-width:2;stroke-linecap:butt;stroke-linejoin:round;stroke-miterlimit:4;stroke-dasharray:none;stroke-dashoffset:0;stroke-opacity:1;marker:none;color-rendering:auto;image-rendering:auto;shape-rendering:auto;text-rendering:auto;enable-background:accumulate" />
    </g>
    <path
       style="color:#000000;clip-rule:nonzero;display:inline;overflow:visible;visibility:visible;opacity:1;isolation:auto;mix-blend-mode:normal;color-interpolation:sRGB;color-interpolation-filters:linearRGB;solid-color:#000000;solid-opacity:1;fill:#fafafa;fill-opacity:1;fill-rule:nonzero;stroke:none;stroke-width:2;stroke-linecap:butt;stroke-linejoin:round;stroke-miterlimit:4;stroke-dasharray:none;stroke-dashoffset:0;stroke-opacity:1;marker:none;color-rendering:auto;image-rendering:auto;shape-rendering:auto;text-rendering:auto;enable-background:accumulate"
       d="m -345.85024,122.34213 c 0.70689,0.46551 1.37562,0.91062 2.00823,1.337 10.08393,6.79647 10.99177,8.83159 10.99177,12.77931 v -14.11631 h -10.01855 z"
       id="rect4359-6"
       inkscape:connector-curvature="0"
       sodipodi:nodetypes="cscccc" />
    <rect
       style="color:#000000;clip-rule:nonzero;display:inline;overflow:visible;visibility:visible;opacity:1;isolation:auto;mix-blend-mode:normal;color-interpolation:sRGB;color-interpolation-filters:linearRGB;solid-color:#000000;solid-opacity:1;fill:#fafafa;fill-opacity:1;fill-rule:nonzero;stroke:none;stroke-width:2;stroke-linecap:butt;stroke-linejoin:round;stroke-miterlimit:4;stroke-dasharray:none;stroke-dashoffset:0;stroke-opacity:1;marker:none;color-rendering:auto;image-rendering:auto;shape-rendering:auto;text-rendering:auto;enable-background:accumulate"
       id="rect4162-7"
       width="3"
       height="16"
       x="-332.85022"
       y="122.34212" />
  </g>
</svg>
