<?xml version="1.0" encoding="UTF-8" standalone="no"?>
<!-- Created with Inkscape (http://www.inkscape.org/) -->

<svg
   xmlns:dc="http://purl.org/dc/elements/1.1/"
   xmlns:cc="http://creativecommons.org/ns#"
   xmlns:rdf="http://www.w3.org/1999/02/22-rdf-syntax-ns#"
   xmlns:svg="http://www.w3.org/2000/svg"
   xmlns="http://www.w3.org/2000/svg"
   xmlns:sodipodi="http://sodipodi.sourceforge.net/DTD/sodipodi-0.dtd"
   xmlns:inkscape="http://www.inkscape.org/namespaces/inkscape"
   width="360"
   height="240"
   viewBox="0 0 360 239.99999"
   id="svg2"
   version="1.1"
   inkscape:version="0.91 r"
   sodipodi:docname="pinterest-placeholder.svg"
   inkscape:export-filename="/home/david/Programs/dev/vm/VVV-1.2.0/www/wordpress-default/wp-content/plugins/nelio-content/admin/images/pinterest-placeholder.png"
   inkscape:export-xdpi="90.000015"
   inkscape:export-ydpi="90.000015">
  <defs
     id="defs4" />
  <sodipodi:namedview
     id="base"
     pagecolor="#ffffff"
     bordercolor="#666666"
     borderopacity="1.0"
     inkscape:pageopacity="0.0"
     inkscape:pageshadow="2"
     inkscape:zoom="1.0005561"
     inkscape:cx="16.745204"
     inkscape:cy="-18.245872"
     inkscape:document-units="px"
     inkscape:current-layer="layer1"
     showgrid="false"
     fit-margin-top="0"
     fit-margin-left="0"
     fit-margin-right="0"
     fit-margin-bottom="0"
     inkscape:window-width="1631"
     inkscape:window-height="1026"
     inkscape:window-x="49"
     inkscape:window-y="24"
     inkscape:window-maximized="1"
     showguides="false"
     units="px" />
  <metadata
     id="metadata7">
    <rdf:RDF>
      <cc:Work
         rdf:about="">
        <dc:format>image/svg+xml</dc:format>
        <dc:type
           rdf:resource="http://purl.org/dc/dcmitype/StillImage" />
        <dc:title></dc:title>
      </cc:Work>
    </rdf:RDF>
  </metadata>
  <g
     inkscape:groupmode="layer"
     id="layer2"
     inkscape:label="Fons"
     style="display:none"
     transform="translate(380.13593,224.87723)"
     sodipodi:insensitive="true">
    <g
       transform="matrix(1.3333333,0,0,1.3333333,-6.8465397e-7,-32.000016)"
       style="display:inline"
       id="g5642">
      <rect
         y="-47.999989"
         x="0"
         height="144"
         width="288"
         id="rect4621"
         style="color:#000000;display:inline;overflow:visible;visibility:visible;opacity:1;fill:#000000;fill-opacity:1;fill-rule:nonzero;stroke:none;stroke-width:2;stroke-linecap:butt;stroke-linejoin:miter;stroke-miterlimit:4;stroke-dasharray:none;stroke-dashoffset:0;stroke-opacity:1;marker:none;enable-background:accumulate" />
    </g>
  </g>
  <g
     inkscape:label="Icones"
     inkscape:groupmode="layer"
     id="layer1"
     transform="translate(345.85022,101.65788)">
    <rect
       style="color:#000000;clip-rule:nonzero;display:inline;overflow:visible;visibility:visible;opacity:1;isolation:auto;mix-blend-mode:normal;color-interpolation:sRGB;color-interpolation-filters:linearRGB;solid-color:#000000;solid-opacity:1;fill:#f0f0f0;fill-opacity:1;fill-rule:nonzero;stroke:none;stroke-width:2;stroke-linecap:butt;stroke-linejoin:round;stroke-miterlimit:4;stroke-dasharray:none;stroke-dashoffset:0;stroke-opacity:1;marker:none;color-rendering:auto;image-rendering:auto;shape-rendering:auto;text-rendering:auto;enable-background:accumulate"
       id="rect4162-7"
       width="360"
       height="240"
       x="-345.85022"
       y="-101.65789" />
    <path
       d="M 153.12305 56.248047 C 151.01134 56.248047 149.28516 57.974227 149.28516 60.085938 L 149.28516 106.16016 C 149.28516 108.27187 151.01134 110 153.12305 110 L 206.87695 110 C 208.98866 110 210.7168 108.27187 210.7168 106.16016 L 210.7168 60.085938 C 210.7168 57.974227 208.98866 56.248047 206.87695 56.248047 L 153.12305 56.248047 z M 153.13086 60.085938 L 206.86914 60.085938 C 206.87314 60.089737 206.87295 60.08985 206.87695 60.09375 L 206.87695 106.15234 L 206.86914 106.16016 L 153.13086 106.16016 L 153.12305 106.15234 L 153.12305 60.09375 C 153.12705 60.08995 153.12686 60.089838 153.13086 60.085938 z M 193.4375 63.925781 C 190.25842 63.925781 187.67969 66.506461 187.67969 69.685547 C 187.67969 72.864632 190.25842 75.445312 193.4375 75.445312 C 196.61659 75.445312 199.19727 72.864632 199.19727 69.685547 C 199.19727 66.506461 196.61659 63.925781 193.4375 63.925781 z M 170.40039 71.605469 L 156.96289 94.642578 L 156.96289 102.32031 L 203.03711 102.32031 L 203.03711 79.285156 L 189.59961 90.802734 L 185.75977 90.802734 L 170.40039 71.605469 z "
       id="path4164"
       style="stroke:none;fill:#aaaaaa;fill-opacity:1"
       transform="translate(-345.85022,-101.65789)" />
  </g>
</svg>
